<?xml version="1.0" encoding="utf-8"?>
<!-- Generator: Adobe Illustrator 15.1.0, SVG Export Plug-In . SVG Version: 6.00 Build 0)  -->
<!DOCTYPE svg PUBLIC "-//W3C//DTD SVG 1.1//EN" "http://www.w3.org/Graphics/SVG/1.1/DTD/svg11.dtd">
<svg version="1.1" id="Layer_1" xmlns="http://www.w3.org/2000/svg" xmlns:xlink="http://www.w3.org/1999/xlink" x="0px" y="0px"
	 width="52px" height="67.583px" viewBox="0 0 52 67.583" enable-background="new 0 0 52 67.583" xml:space="preserve">
<g>
	<path fill="#FED520" d="M46.168,29.197H5.832C2.624,29.197,0,31.821,0,35.029v26.723c0,3.205,2.624,5.831,5.832,5.831h40.337
		c3.207,0,5.831-2.626,5.831-5.831V35.029C52,31.821,49.375,29.197,46.168,29.197z"/>
	<path fill="#929396" d="M14.275,10.934c0-2.01,1.635-3.645,3.645-3.645h16.158c2.011,0,3.646,1.635,3.646,3.645v13.89h7.288v-13.89
		C45.013,4.905,40.109,0,34.079,0H17.92C11.89,0,6.986,4.905,6.986,10.934v13.89h7.289V10.934z"/>
</g>
</svg>
